/* XPM */
static char *Self_cDialogReinforcement_XPM[]={
/* Self_cDialogReinforcement */
"32 32 686 2",
"      c None",
" 0    c #47432F",
" 1    c #494028",
" 2    c #444332",
" 3    c #413F2D",
" 4    c #46422E",
" 5    c #49412A",
" 6    c #444331",
" 7    c #44402C",
" 8    c #5B492A",
" 9    c #5B4B2B",
" a    c #4F4125",
" b    c #A76D2E",
" c    c #B87838",
" d    c #B37436",
" e    c #916440",
" f    c #5F5563",
" g    c #7C6B76",
" h    c #674E44",
" i    c #B97836",
" j    c #B67737",
" k    c #B87738",
" l    c #B27336",
" m    c #B47636",
" n    c #B57637",
" o    c #B97838",
" p    c #B37336",
" q    c #A96E32",
" r    c #835B2D",
" s    c #614D2B",
" t    c #4D462D",
" u    c #4B442C",
" v    c #493E25",
" w    c #494734",
" x    c #4E472E",
" y    c #4A432A",
" z    c #493F26",
" A    c #484531",
" B    c #4D472F",
" C    c #49432D",
" D    c #483E25",
" E    c #4A4631",
" F    c #50482E",
" G    c #7C5522",
" H    c #B97938",
" I    c #82572C",
" J    c #2E3364",
" K    c #454C87",
" L    c #533C2E",
" M    c #B87737",
" N    c #B27536",
" O    c #B37536",
" P    c #B47436",
" Q    c #845928",
" R    c #453E26",
" S    c #46432E",
" T    c #43402E",
" U    c #45422E",
" V    c #454331",
" W    c #46422D",
" X    c #44402D",
" Y    c #494530",
" Z    c #434230",
" &    c #46412D",
"0     c #43412F",
"00    c #494531",
"01    c #42402F",
"02    c #46402B",
"03    c #55492D",
"04    c #69522E",
"05    c #A16A2E",
"06    c #B7783C",
"07    c #493C4E",
"08    c #2C3061",
"09    c #A7713D",
"0a    c #B67537",
"0b    c #B47537",
"0c    c #B17436",
"0d    c #B77938",
"0e    c #B67637",
"0f    c #B57536",
"0g    c #B67938",
"0h    c #B47435",
"0i    c #805A2B",
"0j    c #3F3F2F",
"0k    c #3F3C2A",
"0l    c #45432F",
"0m    c #463F2B",
"0n    c #4A442E",
"0o    c #423E2B",
"0p    c #44412D",
"0q    c #4A442D",
"0r    c #44412F",
"0s    c #4A422A",
"0t    c #403D2B",
"0u    c #584625",
"0v    c #A06529",
"0w    c #8F5E2B",
"0x    c #7F562C",
"0y    c #A26829",
"0z    c #A06629",
"0A    c #B17132",
"0B    c #A56A2C",
"0C    c #9F6529",
"0D    c #AF6F31",
"0E    c #B97737",
"0F    c #A76B2C",
"0G    c #7E5626",
"0H    c #453E29",
"0I    c #4B452D",
"0J    c #434130",
"0K    c #424030",
"0L    c #43402D",
"0M    c #4B432A",
"0N    c #434231",
"0O    c #43402C",
"0P    c #4A4129",
"0Q    c #474734",
"0R    c #3C3C2D",
"0S    c #594727",
"0T    c #614D2C",
"0U    c #413F2C",
"0V    c #3B3C2D",
"0W    c #564526",
"0X    c #5F4A29",
"0Y    c #3B3D2E",
"0Z    c #524326",
"0&    c #604C2B",
"1     c #47422C",
"10    c #3C3C2E",
"11    c #41402E",
"12    c #504226",
"13    c #4D452C",
"14    c #4C452D",
"15    c #493E24",
"16    c #484735",
"17    c #4E452C",
"18    c #4A432B",
"19    c #494633",
"1a    c #4A432C",
"1b    c #4A3E24",
"1c    c #494632",
"1d    c #4F472D",
"1e    c #4A442C",
"1f    c #4A3F25",
"1g    c #4F4830",
"1h    c #48422D",
"1i    c #473D25",
"1j    c #46422F",
"1k    c #504B32",
"1l    c #49432B",
"1m    c #4A4027",
"1n    c #45412D",
"1o    c #504B34",
"1p    c #463F29",
"1q    c #4B4127",
"1r    c #46412C",
"1s    c #504C35",
"1t    c #4A4026",
"1u    c #4A4229",
"1v    c #7B5424",
"1w    c #44412E",
"1x    c #454230",
"1y    c #44422F",
"1z    c #49442F",
"1A    c #444230",
"1B    c #45412E",
"1C    c #47432D",
"1D    c #42402E",
"1E    c #45402D",
"1F    c #49432F",
"1G    c #413F2E",
"1H    c #3E3C2B",
"1I    c #44422E",
"1J    c #413D2A",
"1K    c #47422B",
"1L    c #3C3B2B",
"1M    c #49422C",
"1N    c #3D3C2B",
"1O    c #45422F",
"1P    c #4A4530",
"1Q    c #403F2E",
"1R    c #5D4929",
"1S    c #3E3B29",
"1T    c #464330",
"1U    c #47402B",
"1V    c #49432C",
"1W    c #423D2A",
"1X    c #48412B",
"1Y    c #4E4B36",
"1Z    c #594A40",
"1&    c #4E4A32",
"2     c #544D34",
"20    c #4E4C36",
"21    c #4D4D3A",
"22    c #4F4C38",
"23    c #4F4931",
"24    c #5B5749",
"25    c #616056",
"26    c #636156",
"27    c #655D4D",
"28    c #6A6654",
"29    c #6C6B5B",
"2a    c #6F6C5B",
"2b    c #736D58",
"2c    c #75715E",
"2d    c #727060",
"2e    c #6B6B5C",
"2f    c #706E5D",
"2g    c #4E4936",
"2h    c #464431",
"2i    c #46462C",
"2j    c #433D27",
"2k    c #464534",
"2l    c #424130",
"2m    c #433C27",
"2n    c #464634",
"2o    c #7D7E70",
"2p    c #5F5F76",
"2q    c #71716E",
"2r    c #6B6C56",
"2s    c #6D645E",
"2t    c #6A6C5E",
"2u    c #6B6B56",
"2v    c #5C5C41",
"2w    c #787A98",
"2x    c #3E4471",
"2y    c #3D436D",
"2z    c #61638A",
"2A    c #B8B9CF",
"2B    c #77799B",
"2C    c #8989A8",
"2D    c #8B8BAB",
"2E    c #393840",
"2F    c #343542",
"2G    c #BD9885",
"2H    c #CD9479",
"2I    c #898C82",
"2J    c #3D3B2A",
"2K    c #484029",
"2L    c #494027",
"2M    c #4D422B",
"2N    c #365C22",
"2O    c #424529",
"2P    c #454434",
"2Q    c #4B432B",
"2R    c #4C4025",
"2S    c #444330",
"2T    c #646458",
"2U    c #2F2F44",
"2V    c #353536",
"2W    c #7C7D80",
"2X    c #575775",
"2Y    c #495480",
"2Z    c #807F8E",
"2&    c #676754",
"3     c #52598F",
"30    c #3552B0",
"31    c #3552B1",
"32    c #575F9B",
"33    c #8C8EA0",
"34    c #303A70",
"35    c #3A394F",
"36    c #4E4E67",
"37    c #5C5848",
"38    c #423B23",
"39    c #8A725C",
"3a    c #554846",
"3b    c #8D8B7C",
"3c    c #463C22",
"3d    c #4D4329",
"3e    c #795324",
"3f    c #48432F",
"3g    c #2E2A1D",
"3h    c #3A482A",
"3i    c #47422F",
"3j    c #48442E",
"3k    c #62634D",
"3l    c #464653",
"3m    c #393A2C",
"3n    c #1E1E1E",
"3o    c #717089",
"3p    c #6C6C83",
"3q    c #63637F",
"3r    c #525258",
"3s    c #161A5A",
"3t    c #3B59B9",
"3u    c #3D5CBC",
"3v    c #13175B",
"3w    c #B9B9C5",
"3x    c #565456",
"3y    c #37373A",
"3z    c #545352",
"3A    c #48463B",
"3B    c #5C513D",
"3C    c #534B44",
"3D    c #333344",
"3E    c #8B897D",
"3F    c #634C29",
"3G    c #3F3B28",
"3H    c #45412A",
"3I    c #413C28",
"3J    c #757664",
"3K    c #7B7D94",
"3L    c #7F6F7F",
"3M    c #5C5C53",
"3N    c #585868",
"3O    c #747491",
"3P    c #51526B",
"3Q    c #191924",
"3R    c #1C2260",
"3S    c #3C5CBB",
"3T    c #3D5DBC",
"3U    c #192060",
"3V    c #A0A1AF",
"3W    c #4B4D5F",
"3X    c #51535D",
"3Y    c #4F493A",
"3Z    c #403B2B",
"3&    c #604C45",
"4     c #7E6454",
"40    c #433E39",
"41    c #8A887B",
"42    c #3D3927",
"43    c #454332",
"44    c #4C442B",
"45    c #403F2F",
"46    c #453E28",
"47    c #454533",
"48    c #404030",
"49    c #48412A",
"4a    c #464029",
"4b    c #454431",
"4c    c #828283",
"4d    c #80809F",
"4e    c #52546A",
"4f    c #666676",
"4g    c #31312F",
"4h    c #151521",
"4i    c #4A425A",
"4j    c #47433C",
"4k    c #151746",
"4l    c #111973",
"4m    c #101973",
"4n    c #17194F",
"4o    c #C3B5A7",
"4p    c #B78C6F",
"4q    c #574640",
"4r    c #7C5D4C",
"4s    c #3E4139",
"4t    c #424242",
"4u    c #332F3A",
"4v    c #2E2225",
"4w    c #8B8B80",
"4x    c #3C3B29",
"4y    c #4C3F24",
"4z    c #454432",
"4A    c #49422B",
"4B    c #4C4024",
"4C    c #42402C",
"4D    c #6F6F6F",
"4E    c #71718F",
"4F    c #5A5A74",
"4G    c #353546",
"4H    c #4A4A3D",
"4I    c #474741",
"4J    c #696986",
"4K    c #4F5050",
"4L    c #313136",
"4M    c #0E0F2B",
"4N    c #0D0F2B",
"4O    c #313238",
"4P    c #A99B9B",
"4Q    c #57403E",
"4R    c #4D3B39",
"4S    c #58413C",
"4T    c #6A6157",
"4U    c #716565",
"4V    c #413B34",
"4W    c #3A3322",
"4X    c #8E8C7E",
"4Y    c #443C25",
"4Z    c #4D4328",
"4&    c #765223",
"5     c #454330",
"50    c #484431",
"51    c #5D5E52",
"52    c #1F1F2E",
"53    c #10101C",
"54    c #2F2F39",
"55    c #484855",
"56    c #383843",
"57    c #0E0E1F",
"58    c #2C2C29",
"59    c #75758A",
"5a    c #2D2D3C",
"5b    c #2B2B3A",
"5c    c #6A6B89",
"5d    c #84837C",
"5e    c #383626",
"5f    c #604C40",
"5g    c #3E3332",
"5h    c #403731",
"5i    c #332829",
"5j    c #342A2A",
"5k    c #3F3927",
"5l    c #8B8A7F",
"5m    c #48432D",
"5n    c #674D28",
"5o    c #424231",
"5p    c #48422C",
"5q    c #443E28",
"5r    c #414130",
"5s    c #45402B",
"5t    c #47412B",
"5u    c #555541",
"5v    c #343428",
"5w    c #2B2B21",
"5x    c #3A392B",
"5y    c #3E3E2E",
"5z    c #3D3D2D",
"5A    c #25251F",
"5B    c #333323",
"5C    c #9191AB",
"5D    c #727393",
"5E    c #6F6F8D",
"5F    c #7F80A2",
"5G    c #B7B6B3",
"5H    c #89877B",
"5I    c #908882",
"5J    c #847F7E",
"5K    c #807E7C",
"5L    c #88867D",
"5M    c #84857F",
"5N    c #8E887A",
"5O    c #828074",
"5P    c #3D3A27",
"5Q    c #414030",
"5R    c #474634",
"5S    c #47422D",
"5T    c #4A442F",
"5U    c #4B452E",
"5V    c #484733",
"5W    c #6A6A57",
"5X    c #878786",
"5Y    c #808094",
"5Z    c #666673",
"5&    c #6A6A68",
"6     c #69695A",
"60    c #79796C",
"61    c #717161",
"62    c #373625",
"63    c #3B3824",
"64    c #433D26",
"65    c #43402A",
"66    c #3A3A2A",
"67    c #4B442D",
"68    c #7B5628",
"69    c #4D442A",
"6a    c #4C3F23",
"6b    c #48422B",
"6c    c #4B452F",
"6d    c #4E4125",
"6e    c #4E4126",
"6f    c #3E3C29",
"6g    c #807F7C",
"6h    c #9090AB",
"6i    c #101059",
"6j    c #14145D",
"6k    c #777773",
"6l    c #9D9DAA",
"6m    c #4C4C7D",
"6n    c #383877",
"6o    c #45432B",
"6p    c #45402A",
"6q    c #4F4427",
"6r    c #49452F",
"6s    c #474029",
"6t    c #4C4228",
"6u    c #735023",
"6v    c #AC7033",
"6w    c #5C4928",
"6x    c #4A4833",
"6y    c #47422E",
"6z    c #49442E",
"6A    c #4B4631",
"6B    c #474330",
"6C    c #48442F",
"6D    c #4B4630",
"6E    c #413E2D",
"6F    c #757470",
"6G    c #555570",
"6H    c #060622",
"6I    c #7F7F82",
"6J    c #757593",
"6K    c #04042B",
"6L    c #161652",
"6M    c #43412C",
"6N    c #4D462F",
"6O    c #3F3D2B",
"6P    c #4A4734",
"6Q    c #47432E",
"6R    c #4D4830",
"6S    c #3F3D2C",
"6T    c #6A4E28",
"6U    c #B27235",
"6V    c #A76C33",
"6W    c #4C3B1B",
"6X    c #413E2A",
"6Y    c #424232",
"6Z    c #433F2B",
"6&    c #473E24",
"7     c #5F5E67",
"70    c #41415B",
"71    c #242431",
"72    c #4E4E35",
"73    c #6E6E71",
"74    c #47475F",
"75    c #14143B",
"76    c #3E3E39",
"77    c #3F3C2B",
"78    c #4D442B",
"79    c #9C662F",
"7a    c #BB7939",
"7b    c #BA7737",
"7c    c #664F2A",
"7d    c #474633",
"7e    c #5F5F48",
"7f    c #525246",
"7g    c #9595A8",
"7h    c #68689B",
"7i    c #5E5E78",
"7j    c #4A4A55",
"7k    c #454F65",
"7l    c #646562",
"7m    c #434335",
"7n    c #423F2B",
"7o    c #4C4730",
"7p    c #4B4732",
"7q    c #3D3E32",
"7r    c #4D4B40",
"7s    c #5F584B",
"7t    c #4E452D",
"7u    c #835527",
"7v    c #BA7938",
"7w    c #9B672F",
"7x    c #504428",
"7y    c #4F4225",
"7z    c #433F2C",
"7A    c #47402A",
"7B    c #504427",
"7C    c #666556",
"7D    c #94949D",
"7E    c #5D5D76",
"7F    c #07075D",
"7G    c #2F2F4B",
"7H    c #707068",
"7I    c #5A5F72",
"7J    c #5C5D57",
"7K    c #464434",
"7L    c #443E29",
"7M    c #4F4326",
"7N    c #3C3C3F",
"7O    c #49568C",
"7P    c #454B97",
"7Q    c #4B415D",
"7R    c #472D15",
"7S    c #95612D",
"7T    c #AE7234",
"7U    c #BB7938",
"7V    c #714F21",
"7W    c #2A2B20",
"7X    c #2F2E21",
"7Y    c #413E2C",
"7Z    c #4D4933",
"7&    c #312E20",
"8     c #2D2C20",
"80    c #413D28",
"81    c #6F6E67",
"82    c #78788B",
"83    c #2D2D45",
"84    c #101037",
"85    c #4F4F43",
"86    c #6C6C66",
"87    c #626258",
"88    c #55553E",
"89    c #494532",
"8a    c #4C483C",
"8b    c #33334C",
"8c    c #191A41",
"8d    c #302F37",
"8e    c #160E06",
"8f    c #382410",
"8g    c #62401E",
"8h    c #A06830",
"8i    c #32210E",
"8j    c #090907",
"8k    c #060705",
"8l    c #292416",
"8m    c #474430",
"8n    c #473E26",
"8o    c #27261B",
"8p    c #0C0B07",
"8q    c #211C10",
"8r    c #64644C",
"8s    c #5A5B68",
"8t    c #2C2C40",
"8u    c #333332",
"8v    c #636354",
"8w    c #686860",
"8x    c #676760",
"8y    c #585843",
"8z    c #3F3D2D",
"8A    c #494129",
"8B    c #3C3828",
"8C    c #2E2E27",
"8D    c #363627",
"8E    c #443B23",
"8F    c #000000",
"8G    c #393829",
"8H    c #2B2B20",
"8I    c #484631",
"8J    c #423E29",
"8K    c #45422D",
"8L    c #423F2C",
"8M    c #414131",
"8N    c #48402A",
"8O    c #3C341F",
"8P    c #4A3E25",
"8Q    c #1B1A13",
"8R    c #1E1A10",
"8S    c #413923",
"8T    c #50452A",
"8U    c #47412C",
"8V    c #473E25",
"8W    c #51462A",
"8X    c #46432F",
"8Y    c #433C26",
"8Z    c #51452A",
"8&    c #484430",
"9     c #45402C",
"90    c #453C26",
"91    c #4F4529",
"92    c #6A4D24",
"93    c #050402",
"94    c #1A1910",
"95    c #100F0B",
"96    c #010101",
"97    c #10100C",
"98    c #393422",
"99    c #403B28",
"9a    c #4A4733",
"9b    c #393626",
"9c    c #332F20",
"9d    c #4C4731",
"9e    c #4D4730",
"9f    c #403D2A",
"9g    c #725228",
"9h    c #040403",
"9i    c #17120A",
"9j    c #272419",
"9k    c #383220",
"9l    c #363324",
"9m    c #100E09",
"9n    c #0A0B08",
"9o    c #1C180F",
"9p    c #49422A",
"9q    c #27271C",
"9r    c #4A4630",
"9s    c #13120C",
"9t    c #3B3523",
"9u    c #474431",
"9v    c #443F2A",
"9w    c #423C28",
"9x    c #4E4429",
"9y    c #664C25",
"9z    c #0C0C09",
"9A    c #363120",
"9B    c #443C27",
"9C    c #4A4632",
"9D    c #765328",
"9E    c #161108",
"9F    c #222016",
"9G    c #363222",
"9H    c #444432",
"9I    c #4E4328",
"   0 1 2 3 4 5 6 7 8 9   a b c d e f g h i j k l m n o p n q r s",
" t u v w x y z A B C D E F G H n I J K L M o N O p o O O P Q R S",
" T U V W X Y Z &0 0001020 030405060708090a0b0c0d0e0f0c0g0h0i0j00",
"0k0l0m0n0o0p &0q 30r &0s0t   V0u0v0w0x0y0z0A M0B0C0D0E0F0G0H V0I",
"0J 0 1 20K 4 1 2 60L0M 60N0O0P0Q0R0S0T0U0V0W0X0L0Y0Z0&1 10110M12",
"1314151617181519 t1a1b1c1d1e1f S1g1h1i1j1k1l1m1n1o1p1q1r1s1t1u1v",
"1w1w1x1y1w1z1A1B0 1C1D1E0 1F1G U0U1 1H1I1J1K1L1y0k1M1N1O0t1P1Q1R",
"1S1T1U1V1W1w1 1X1Y1Z1&2 202122232425262728292a2b2c2d2e2f2g1S2h0M",
"0J2i2j2k2l1r2m2n2o2p2q2r2s2t2u2v2w2x2y2z2A2B2C2D2E2F2G2H2I2J2K2L",
"2M2N2O2P2Q0M2R2S2T2U2V2W2X2Y2Z2&3 303132333435363738393a3b3c3d3e",
"3f3g3h3i1B3j0 3f3k3l3m3n3o3p3q3r3s3t3u3v3w3x3y3z3A3B3C3D3E1K0j3F",
"3G V3H1M3I1y &1X3J3K3L3M3N3O3P3Q3R3S3T3U3V3W3X3Y3Z3&4 4041424344",
"451V464748494a4b4c4d4e4f4g4h4i4j4k4l4m4n4o4p4q4r4s4t4u4v4w4x y2L",
" u u4y4z0I4A4B4C4D4E4F4G4H4I4J4K4L4M4N4O4P4Q4R4S4T4U4V4W4X4Y4Z4&",
"5 1O1O501j1z T Y5152535455565758595a5b5c5d5e5f5g5h5i5j5k5l5m1Q5n",
"3I5o025p5q5r5s5t5u5v5w5x5y5z5A5B5C5D5E5F5G5H5I5J5K5L5M5N5O5P5Q2Q",
"5p0n025R451V5S5R1Q5p5T w45025U5V5W5X5Y5Z5&6 606162636465661D670P",
"68696a2l0n6b2R1G6c1 6d0L5U5t6e6f6g6h6i6j6k6l6m6n6o6p6q 76r6s6t6u",
"6v6w1D6x6y6z1D6A6B1z  6A6C6D6E 06F6G6H546I6J6K6L6M6N6O6P6Q6R6S6T",
"6U6V3e6W6X6Y6Z0P X 60o z0o Z0 6&7 70717273747576771w1G2Q2m6E4578",
"797a7a7b7c1 5m7d2l5S6z7d5r5t5m7d7e7f7g7h7i7j7k7l7m7n7o7p7q7r7s7t",
"7u7v m O7w7x6d11 Y4a7y7z1z7A7B0k7C7D7E7F7G7H7I7J7K7L7M &7N7O7P7Q",
"7R7S7T7U7V7W7X6C5m1z7Y7Z677&8 8081828384858687886O147Y898a8b8c8d",
"8e8f8g8h8i8j8k8l8m1y1B8n8o8p8k8q8r8s8t8u8v8w8x8y8z5s0J8A8B8C8D8E",
"8F8F8F8F8F8F8F8F8G3j & 68F8F8F8F8H6p S8I5z8J8K6Q5o8L6C Y8M 36C8N",
"8F8F8F8F8F8F8F8F8q8O8P8Q8F8F8F8F8R8S8T5 8U8V8W1w8X8Y8Z8&9 909192",
"8F8F8F8F8F8F8F8F939495968F8F8F8F9798999a6D9b9c1w E7o3I A9d9e9f9g",
"8F8F8F8F8F8F8F8F8F8F8F8F8F8F8F8F9h9i9j9k9l9m9n9o 0 W0J9p3I0L0N3d",
"8F8F8F8F8F8F8F8F8F8F8F8F8F8F8F8F8F8F8F8F8F8F8F8F9q8L E6z0j779r8N",
"8F8F8F8F8F8F8F8F8F8F8F8F8F8F8F8F8F8F8F8F8F8F8F8F9s9t8T9u9v9w9x9y",
"8F8F8F8F8F8F8F8F8F8F8F8F8F8F8F8F8F8F8F8F8F8F8F8F9z9A9B9C7Z239w9D",
"8F8F8F8F8F8F8F8F8F8F8F8F8F8F8F8F8F8F8F8F8F8F8F8F9h9E9F9G6Z0 9H9I"};

